<svg version="1.1" id="icon-build" xmlns="http://www.w3.org/2000/svg" xmlns:xlink="http://www.w3.org/1999/xlink" x="0px" y="0px"
	 viewBox="0 0 40 40" style="enable-background:new 0 0 40 40;" xml:space="preserve">
<style type="text/css">
	.icon-shoppingtools-color{fill:none;stroke:#000000;}
</style>
<g id="icon-build-vehicle">
	<circle class="icon-shoppingtools-color" cx="8.2" cy="27.1" r="3.4"/>
	<circle class="icon-shoppingtools-color" cx="30.4" cy="27" r="3.4"/>
	<line class="icon-shoppingtools-color" x1="27" y1="28.1" x2="11.5" y2="28.2"/>
	<path class="icon-shoppingtools-color" d="M4.9,27.7H2.6c-0.5,0-1.6-0.6-1.3-2.6s0.4-3.5,2-3.9s6.9-1.5,7.4-1.6s1.6-0.4,2.8-1.1s5.4-3.3,8.8-3.3h2.5"/>
	<path class="icon-shoppingtools-color" d="M33.3,15.7c0,0,2,1.1,3,2.4s1.5,3.2,1.5,4s0.7,1.6,0.7,3s-1.4,1.7-1.9,1.8s-3,0.5-3,0.5"/>
</g>
<g id="icon-build-pencil">
	<path class="icon-shoppingtools-color" d="M25.8,21.2l-3.2,0.7l0.8-3.2l8.9-8.9c0,0,0.8-0.1,1.6,0.8s0.9,1.7,0.9,1.7L25.8,21.2L25.8,21.2L25.8,21.2z"/>
	<line class="icon-shoppingtools-color" x1="31.4" y1="10.7" x2="33.8" y2="13.2"/>
	<line class="icon-shoppingtools-color" x1="23.3" y1="18.8" x2="25.8" y2="21.2"/>
	<line class="icon-shoppingtools-color" x1="22.8" y1="20.9" x2="23.6" y2="21.7"/>
</g>
</svg>
