<svg version="1.1" id="icon-search-inventory" xmlns="http://www.w3.org/2000/svg" xmlns:xlink="http://www.w3.org/1999/xlink"
	 x="0px" y="0px" viewBox="0 0 40 40" style="enable-background:new 0 0 40 40;" xml:space="preserve">
<style type="text/css">
	.icon-shoppingtools-color{fill:none;stroke:#000000;}
	.icon-round{stroke-linecap:round;stroke-linejoin:round;}
</style>
<g id="icon-search-inventory-vehicle1">
	<circle class="icon-shoppingtools-color icon-round" cx="11.2" cy="26.7" r="2.8"/>
	<circle class="icon-shoppingtools-color icon-round" cx="31.2" cy="26.7" r="2.8"/>
	<line class="icon-shoppingtools-color icon-round" x1="28.4" y1="27.6" x2="14" y2="27.6"/>
	<path class="icon-shoppingtools-color icon-round" d="M8.5,27.6l-3.4-0.3c0,0-0.4-1-0.4-2s0.4-2.1,1-2.4c2.7-1.4,8.3-1.6,8.3-1.6s2.5-1.2,4.1-1.9
		c1.6-0.7,4.3-1.7,9.4-1.2c1.6,0.2,3.1,0.8,4.2,1.2c1.4,0.5,0.5,0.3,2.8,0.9c2,0.5,1,0.3,2,0.5c1,0.3,1.5,0.5,1.5,1.7
		s1.2,1.7,0.7,3.1s-0.4,1.5-1.8,1.6c-1.4,0.1-2.9,0.2-2.9,0.2"/>
</g>
<g id="icon-search-inventory-vehicle2">
	<path class="icon-shoppingtools-color icon-round" d="M3.2,23.2c-0.1-0.4-0.3-1-0.3-1.6c0-1,0.4-2.1,1-2.4c2.7-1.4,8.3-1.6,8.3-1.6s2.5-1.2,4.1-1.9
		c1.6-0.7,4.3-1.7,9.4-1.2c1.6,0.2,3.1,0.8,4.2,1.2c1.4,0.5,0.5,0.3,2.8,0.9c2,0.5,1,0.3,2,0.5c1,0.3,1.5,0.5,1.5,1.7"/>
</g>
<g id="icon-search-inventory-vehicle3">
	<path class="icon-shoppingtools-color icon-round" d="M1.6,19.5c-0.1-0.4-0.3-1-0.3-1.6c0-1,0.4-2.1,1-2.4c2.7-1.4,8.3-1.6,8.3-1.6s2.5-1.2,4.1-1.9s4.3-1.7,9.4-1.2
		c1.6,0.2,3.1,0.8,4.2,1.2c1.4,0.5,0.5,0.3,2.8,0.9c2,0.5,1,0.3,2,0.5c1,0.3,1.5,0.5,1.5,1.7"/>
</g>
</svg>
