<svg id="icon-search-inventory" xmlns="http://www.w3.org/2000/svg" xmlns:xlink="http://www.w3.org/1999/xlink" viewBox="0 0 40 40" shape-rendering="geometricPrecision" text-rendering="geometricPrecision">
<style><![CDATA[
#icon-search-inventory-vehicle1 {animation: icon-search-inventory-vehicle1__to 500ms linear 1 normal forwards}@keyframes icon-search-inventory-vehicle1__to { 0% {transform: translate(21.760941px,25.717456px);animation-timing-function: cubic-bezier(0.32,0.52,0.355,1)} 100% {transform: translate(21.76094px,23.782544px)}} #icon-search-inventory-vehicle3 {animation: icon-search-inventory-vehicle3__to 500ms linear 1 normal forwards}@keyframes icon-search-inventory-vehicle3__to { 0% {transform: translate(17.901083px,13.125836px);animation-timing-function: cubic-bezier(0.32,0.45,0.355,1)} 100% {transform: translate(17.95px,15.082544px)}}
]]>
	.icon-shoppingtools-color{fill:none;stroke:#000000;}
	.icon-round{stroke-linecap:round;stroke-linejoin:round;}
	
</style>
<g id="icon-search-inventory-vehicle1" transform="translate(21.760941,25.717456)"><g transform="translate(-21.76094,-23.782544)"><circle r="2.8" transform="translate(11.2 26.7)" class="icon-shoppingtools-color icon-round"/><circle r="2.8" transform="translate(31.2 26.7)" class="icon-shoppingtools-color icon-round"/><line x1="28.4" y1="27.6" x2="14" y2="27.6" class="icon-shoppingtools-color icon-round"/><path d="M8.5,27.6l-3.4-.3c0,0-.4-1-.4-2s.4-2.1,1-2.4c2.7-1.4,8.3-1.6,8.3-1.6s2.5-1.2,4.1-1.9s4.3-1.7,9.4-1.2c1.6.2,3.1.8,4.2,1.2c1.4.5.5.3,2.8.9c2,.5,1,.3,2,.5c1,.3,1.5.5,1.5,1.7s1.2,1.7.7,3.1-.4,1.5-1.8,1.6-2.9.2-2.9.2" class="icon-shoppingtools-color icon-round"/></g></g><g><path d="M3.2,23.2c-.1-.4-.3-1-.3-1.6c0-1,.4-2.1,1-2.4c2.7-1.4,8.3-1.6,8.3-1.6s2.5-1.2,4.1-1.9s4.3-1.7,9.4-1.2c1.6.2,3.1.8,4.2,1.2c1.4.5.5.3,2.8.9c2,.5,1,.3,2,.5c1,.3,1.5.5,1.5,1.7" class="icon-shoppingtools-color icon-round"/></g><g id="icon-search-inventory-vehicle3" transform="translate(17.901083,13.125836)"><g transform="translate(-17.95,-15.082544)"><path d="M1.6,19.5c-.1-.4-.3-1-.3-1.6c0-1,.4-2.1,1-2.4c2.7-1.4,8.3-1.6,8.3-1.6s2.5-1.2,4.1-1.9s4.3-1.7,9.4-1.2c1.6.2,3.1.8,4.2,1.2c1.4.5.5.3,2.8.9c2,.5,1,.3,2,.5c1,.3,1.5.5,1.5,1.7" class="icon-shoppingtools-color icon-round"/></g></g></svg>
