<svg id="icon-build" xmlns="http://www.w3.org/2000/svg" xmlns:xlink="http://www.w3.org/1999/xlink" viewBox="0 0 40 40" shape-rendering="geometricPrecision" text-rendering="geometricPrecision">
<style><![CDATA[
#icon-build-pencil {animation: icon-build-pencil__to 1000ms linear 1 normal forwards}@keyframes icon-build-pencil__to { 0% {offset-distance: 0%;animation-timing-function: cubic-bezier(0.07,0.675,0.175,1.01)} 100% {offset-distance: 100%}} #ejrfeXipouq8_tr {animation: ejrfeXipouq8_tr__tr 1000ms linear 1 normal forwards}@keyframes ejrfeXipouq8_tr__tr { 0% {transform: rotate(0deg);animation-timing-function: cubic-bezier(0.07,0.675,0.175,1.01)} 100% {transform: rotate(-16.358728deg)}}
]]>
	.hyundaiBlack{fill:none;stroke:#000000;stroke-linecap:round;stroke-linejoin:round;}
</style>
<g><circle r="3.8" transform="translate(10.3 32.1)" class="hyundaiBlack"/><circle r="3.8" transform="translate(35.7 32)" class="hyundaiBlack"/><line x1="31.8" y1="33.3" x2="14.1" y2="33.3" class="hyundaiBlack"/><path d="M6.5,32.8h-2.5c-.5,0-1.8-.6-1.5-3s.4-4,2.3-4.5s7.9-1.7,8.5-1.9s1.8-.5,3.2-1.2s6.2-3.8,10-3.8h2.9" class="hyundaiBlack"/><path d="M39.1,19.1c0,0,2.3,1.3,3.5,2.8s1.7,3.6,1.8,4.6.8,1.8.8,3.5-1.6,2-2.2,2-3.4.5-3.4.5" class="hyundaiBlack"/></g><g id="icon-build-pencil" style="offset-path:path('M30.6,22.4C33.031971,21.05242,34.109271,17.694897,32.830659,13.449388');offset-rotate:0deg"><g id="ejrfeXipouq8_tr" transform="rotate(0)"><g transform="translate(-30.6,-22.4)"><path d="M30.4,25.4l-3.7.8.9-3.6L37.8,12.4c0,0,.9-.1,1.8.9s1,2,1,2L30.4,25.4c0,0,0,0,0,0Z" class="hyundaiBlack"/><line x1="36.8" y1="13.3" x2="39.6" y2="16.1" class="hyundaiBlack"/><line x1="27.8" y1="22.4" x2="30.6" y2="25.2" class="hyundaiBlack"/><line x1="27" y1="25" x2="27.9" y2="25.9" class="hyundaiBlack"/></g></g></g></svg>
