<svg id="icon-build" xmlns="http://www.w3.org/2000/svg" xmlns:xlink="http://www.w3.org/1999/xlink" viewBox="0 0 40 40" shape-rendering="geometricPrecision" text-rendering="geometricPrecision">
<style><![CDATA[
#icon-build-pencil {animation: icon-build-pencil__to 400ms linear 1 normal forwards}@keyframes icon-build-pencil__to { 0% {offset-distance: 0%;animation-timing-function: cubic-bezier(0.32,0.52,0.36,1)} 100% {offset-distance: 100%}} #icon-build-pencil-rotate {animation: icon-build-pencil-rotate__tr 400ms linear 1 normal forwards}@keyframes icon-build-pencil-rotate__tr { 0% {transform: rotate(-16.36deg);animation-timing-function: cubic-bezier(0.32,0.52,0.36,1)} 100% {transform: rotate(0deg)}}
]]>
	.hyundaiBlack{fill:none;stroke:#000000;}
</style>
<g><circle r="3.4" transform="translate(8.2 27.1)" class="hyundaiBlack"/><circle r="3.4" transform="translate(30.4 27)" class="hyundaiBlack"/><line x1="27" y1="28.1" x2="11.5" y2="28.2" class="hyundaiBlack"/><path d="M4.9,27.7h-2.3c-.5,0-1.6-.6-1.3-2.6s.4-3.5,2-3.9s6.9-1.5,7.4-1.6s1.6-.4,2.8-1.1s5.4-3.3,8.8-3.3h2.5" class="hyundaiBlack"/><path d="M33.3,15.7c0,0,2,1.1,3,2.4s1.5,3.2,1.5,4s.7,1.6.7,3-1.4,1.7-1.9,1.8-3,.5-3,.5" class="hyundaiBlack"/></g><g id="icon-build-pencil" style="offset-path:path('M29.64234,7.524825C31.981195,10.241699,30.175394,14.302163,28.699997,15.848349');offset-rotate:0deg"><g id="icon-build-pencil-rotate" transform="rotate(-16.36)"><g transform="translate(-28.699997,-15.848349)"><line x1="31.4" y1="10.7" x2="33.8" y2="13.2" class="hyundaiBlack"/><line x1="23.3" y1="18.8" x2="25.8" y2="21.2" class="hyundaiBlack"/><line x1="22.8" y1="20.9" x2="23.6" y2="21.7" class="hyundaiBlack"/><path d="M25.8,21.2l-3.2.7.8-3.2l8.9-8.9c0,0,.8-.1,1.6.8s.9,1.7.9,1.7l-7.465983,7.383028L25.8,21.2v0v0Z" class="hyundaiBlack" /></g></g></g></svg>
