<?xml version="1.0" encoding="utf-8"?>
<!-- Generator: Adobe Illustrator 27.8.1, SVG Export Plug-In . SVG Version: 6.00 Build 0)  -->
<svg version="1.1" id="icon-build" xmlns="http://www.w3.org/2000/svg" xmlns:xlink="http://www.w3.org/1999/xlink" x="0px" y="0px"
	 viewBox="0 0 48 48" style="enable-background:new 0 0 48 48;" xml:space="preserve">
<style type="text/css">
	.st0{fill:none;stroke:#000000;stroke-miterlimit:10;}
</style>
<g id="vehicle">
	<circle class="st0" cx="10.3" cy="32.1" r="3.8"/>
	<circle class="st0" cx="35.7" cy="32" r="3.8"/>
	<line class="st0" x1="31.8" y1="33.3" x2="14.1" y2="33.3"/>
	<path class="st0" d="M6.5,32.8H4c-0.5,0-1.8-0.6-1.5-3s0.4-4,2.3-4.5s7.9-1.7,8.5-1.9s1.8-0.5,3.2-1.2s6.2-3.8,10-3.8h2.9"/>
	<path class="st0" d="M39.1,19.1c0,0,2.3,1.3,3.5,2.8s1.7,3.6,1.8,4.6s0.8,1.8,0.8,3.5s-1.6,2-2.2,2s-3.4,0.5-3.4,0.5"/>
</g>
<g id="pencil">
	<path class="st0" d="M30.4,25.4l-3.7,0.8l0.9-3.6l10.2-10.2c0,0,0.9-0.1,1.8,0.9s1,2,1,2L30.4,25.4C30.4,25.4,30.4,25.4,30.4,25.4z
		"/>
	<line class="st0" x1="36.8" y1="13.3" x2="39.6" y2="16.1"/>
	<line class="st0" x1="27.8" y1="22.4" x2="30.6" y2="25.2"/>
	<line class="st0" x1="27" y1="25" x2="27.9" y2="25.9"/>
</g>
</svg>
