<svg id="icon-build" xmlns="http://www.w3.org/2000/svg" viewBox="0 0 48 48" aria-label="hidden">
  <defs>
    <style>
      .hyundaiBlack {
        fill: none;
        stroke: #000;
        stroke-miterlimit: 10;
      }
    </style>
  </defs>
  <circle class="hyundaiBlack" cx="10.32" cy="32.1" r="3.85"/>
  <circle class="hyundaiBlack" cx="35.69" cy="32.02" r="3.85"/>
  <line class="hyundaiBlack" x1="31.84" y1="33.26" x2="14.09" y2="33.33"/>
  <path class="hyundaiBlack" d="m6.53,32.75h-2.58c-.52,0-1.79-.64-1.48-2.99s.44-3.97,2.35-4.51,7.86-1.66,8.52-1.85,1.82-.45,3.16-1.25,6.21-3.82,10.04-3.82h2.87"/>
  <path class="hyundaiBlack" d="m39.12,19.1s2.27,1.27,3.47,2.77,1.68,3.63,1.77,4.62.79,1.83.79,3.45-1.6,1.95-2.22,2.04-3.41.53-3.41.53"/>
  <path class="hyundaiBlack" d="m30.45,25.37l-3.72.81.89-3.63,10.17-10.17s.9-.08,1.85.87.98,1.96.98,1.96l-10.17,10.16h0Z"/>
  <line class="hyundaiBlack" x1="36.85" y1="13.31" x2="39.68" y2="16.14"/>
  <line class="hyundaiBlack" x1="27.62" y1="22.54" x2="30.45" y2="25.37"/>
  <line class="hyundaiBlack" x1="27.03" y1="24.95" x2="27.98" y2="25.9"/>
</svg>